<svg viewBox="0 0 1600 900" xmlns="http://www.w3.org/2000/svg">
  <defs>
    <linearGradient id="strokeGradLight" x1="80" y1="0" x2="1520" y2="0" gradientUnits="userSpaceOnUse">
      <stop offset="0%" stop-color="#374151"></stop>
      <stop offset="55%" stop-color="#7A6FE0"></stop>
      <stop offset="100%" stop-color="#6C63FF"></stop>
    </linearGradient>

    <linearGradient id="beamGradLight" x1="0" y1="0" x2="0" y2="1">
      <stop offset="0%" stop-color="#6C63FF" stop-opacity="0"></stop>
      <stop offset="50%" stop-color="#6C63FF" stop-opacity="0.10"></stop>
      <stop offset="100%" stop-color="#6C63FF" stop-opacity="0"></stop>
    </linearGradient>

    <radialGradient id="glowLight" cx="58%" cy="55%" r="45%">
      <stop offset="0%" stop-color="#6C63FF" stop-opacity="0.08"></stop>
      <stop offset="100%" stop-color="#6C63FF" stop-opacity="0"></stop>
    </radialGradient>
  </defs>

  
  <rect width="1600" height="900" fill="#F4F2EC"></rect>
  <rect width="1600" height="900" fill="url(#glowLight)"></rect>

  
  <rect x="850" y="0" width="170" height="900" fill="url(#beamGradLight)"></rect>
  <line x1="925" y1="0" x2="925" y2="900" stroke="#6C63FF" stroke-width="1.5" opacity="0.35"></line>

  
  <path d="M80,560 C140,460 200,660 260,540 C320,420 380,640 440,520 C500,400 560,620 620,500 C680,420 730,560 780,480 C830,440 860,500 900,470 L1520,430" fill="none" stroke="url(#strokeGradLight)" stroke-width="5" stroke-linecap="round"></path>

  
  <g fill="#374151">
    <circle cx="260" cy="540" r="6"></circle>
    <circle cx="440" cy="520" r="6"></circle>
    <circle cx="620" cy="500" r="6"></circle>
    <circle cx="780" cy="480" r="6"></circle>
  </g>
  <g fill="none" stroke="#6C63FF" stroke-width="1.5" opacity="0.55">
    <circle cx="260" cy="540" r="12"></circle>
    <circle cx="440" cy="520" r="12"></circle>
    <circle cx="620" cy="500" r="12"></circle>
    <circle cx="780" cy="480" r="12"></circle>
  </g>
</svg>